<svg width="37" height="12" viewBox="0 0 37 12" fill="none" xmlns="http://www.w3.org/2000/svg">
<g filter="url(#filter0_d_509_10888)">
<path d="M3.13764 3.1477L1 4.37046L1.21251 2.94189L4.45023 1.07748V9.83051H3.13764L3.13764 3.1477Z" fill="white" fill-opacity="0.9" shape-rendering="crispEdges"/>
<path d="M7.47436 9.97579C7.091 9.97579 6.72847 9.92736 6.38679 9.83051C6.0451 9.74173 5.76591 9.62066 5.54923 9.46731L5.34922 8.12349C5.57423 8.35755 5.85758 8.53914 6.19927 8.66828C6.5493 8.79742 6.91182 8.86199 7.28684 8.86199C7.65354 8.86199 7.98272 8.79742 8.27441 8.66828C8.5661 8.53914 8.79528 8.35755 8.96196 8.12349C9.12864 7.88136 9.21197 7.61098 9.21197 7.31235C9.21197 6.99758 9.12447 6.72316 8.94946 6.4891C8.78278 6.24697 8.5411 6.06134 8.22441 5.9322C7.91605 5.80307 7.5577 5.7385 7.14934 5.7385C6.89099 5.7385 6.64097 5.75868 6.39929 5.79903C6.1576 5.83939 5.95342 5.89588 5.78675 5.96852L6.6618 1.35593L10.4621 1.35593L10.6246 2.53027H7.66187L7.09933 5.32688L6.94932 4.8063C6.97432 4.8063 7.02016 4.79822 7.08683 4.78208C7.1535 4.77401 7.22434 4.76594 7.29935 4.75787C7.37435 4.7498 7.44936 4.74576 7.52436 4.74576C8.11607 4.74576 8.6411 4.85472 9.09947 5.07264C9.55783 5.29056 9.91202 5.59322 10.162 5.98063C10.4204 6.36804 10.5496 6.81194 10.5496 7.31235C10.5496 7.82082 10.4162 8.28087 10.1495 8.69249C9.88285 9.09604 9.51616 9.41081 9.04946 9.6368C8.58276 9.86279 8.05773 9.97579 7.47436 9.97579Z" fill="white" fill-opacity="0.9" shape-rendering="crispEdges"/>
<path d="M14.8869 10C14.1701 10 13.5409 9.8184 12.9992 9.45521C12.4575 9.09201 12.0408 8.5795 11.7492 7.91768C11.4575 7.24778 11.3116 6.47296 11.3116 5.59322C11.3116 4.71348 11.4575 3.9427 11.7492 3.28087C12.0408 2.61098 12.4534 2.09443 12.9867 1.73123C13.5284 1.36804 14.1576 1.18644 14.8744 1.18644C15.5911 1.18644 16.2203 1.36804 16.762 1.73123C17.3037 2.09443 17.7204 2.61098 18.0121 3.28087C18.3038 3.9427 18.4496 4.71348 18.4496 5.59322C18.4496 6.47296 18.3038 7.24778 18.0121 7.91768C17.7204 8.5795 17.3037 9.09201 16.762 9.45521C16.2286 9.8184 15.6036 10 14.8869 10ZM14.8869 8.86199C15.3536 8.86199 15.7536 8.73285 16.0869 8.47458C16.4203 8.20823 16.6745 7.83293 16.8495 7.34867C17.0328 6.85634 17.1245 6.27119 17.1245 5.59322C17.1245 4.91525 17.0328 4.33414 16.8495 3.84988C16.6745 3.35755 16.4203 2.98224 16.0869 2.72397C15.7536 2.45763 15.3536 2.32446 14.8869 2.32446C14.4285 2.32446 14.0326 2.45763 13.6993 2.72397C13.3659 2.98224 13.1076 3.35755 12.9242 3.84988C12.7492 4.34221 12.6617 4.92332 12.6617 5.59322C12.6617 6.26311 12.7492 6.84423 12.9242 7.33656C13.1076 7.82889 13.3659 8.20823 13.6993 8.47458C14.0326 8.73285 14.4285 8.86199 14.8869 8.86199Z" fill="white" fill-opacity="0.9" shape-rendering="crispEdges"/>
<path d="M21.6689 3.25666L31.0445 3.25666V9.83051H29.7444V4.35835H26.9942V9.83051H25.7191V4.35835L22.9689 4.35835V9.83051H21.6689V3.25666Z" fill="white" fill-opacity="0.9" shape-rendering="crispEdges"/>
<path d="M33.5915 3.05085C33.7832 2.79257 33.9207 2.57466 34.0041 2.39709C34.0874 2.21146 34.1291 2.0339 34.1291 1.86441C34.1291 1.59806 34.0291 1.38418 33.829 1.22276C33.629 1.06134 33.3582 0.98063 33.0165 0.98063C32.7831 0.98063 32.5623 1.02502 32.3539 1.1138C32.1539 1.19451 31.9831 1.32365 31.8414 1.50121L32.0289 0.363196C32.1789 0.250201 32.3664 0.16142 32.5915 0.0968525C32.8165 0.0322842 33.0582 0 33.3165 0C33.9082 0 34.3916 0.161421 34.7666 0.484262C35.15 0.799031 35.3416 1.21065 35.3416 1.71913C35.3416 2.00969 35.2708 2.30428 35.1291 2.60291C34.9875 2.89346 34.7624 3.22034 34.4541 3.58353L33.354 4.90315L33.1915 4.58838H35.6667L35.5292 5.60533H31.6789L33.5915 3.05085Z" fill="white" fill-opacity="0.9" shape-rendering="crispEdges"/>
</g>
<defs>
<filter id="filter0_d_509_10888" x="0" y="0" width="36.6641" height="12" filterUnits="userSpaceOnUse" color-interpolation-filters="sRGB">
<feFlood flood-opacity="0" result="BackgroundImageFix"/>
<feColorMatrix in="SourceAlpha" type="matrix" values="0 0 0 0 0 0 0 0 0 0 0 0 0 0 0 0 0 0 127 0" result="hardAlpha"/>
<feOffset dy="1"/>
<feGaussianBlur stdDeviation="0.5"/>
<feComposite in2="hardAlpha" operator="out"/>
<feColorMatrix type="matrix" values="0 0 0 0 0 0 0 0 0 0 0 0 0 0 0 0 0 0 0.1 0"/>
<feBlend mode="normal" in2="BackgroundImageFix" result="effect1_dropShadow_509_10888"/>
<feBlend mode="normal" in="SourceGraphic" in2="effect1_dropShadow_509_10888" result="shape"/>
</filter>
</defs>
</svg>
