<svg width="34" height="34" viewBox="0 0 34 34" fill="none" xmlns="http://www.w3.org/2000/svg">
<path d="M30.8287 1.57838C30.2216 0.858756 29.0882 0 27.1297 0C22.5154 0 17.8111 4.08269 14.2259 11.2022C12.6183 14.3925 11.2904 18.0914 10.2661 22.1549C10.1286 22.1549 9.98629 22.1597 9.84877 22.1597C7.78587 22.1597 6.49123 21.229 5.99803 19.3868C5.08277 15.9853 7.09824 9.43192 13.9508 4.09708V3.57415H8.80546C3.14791 9.25441 1.1277 15.9038 2.33698 20.399C3.24276 23.7717 5.86999 25.8394 9.41722 25.9929C8.91928 28.5596 8.5399 31.2366 8.27907 34H12.0824C12.3717 31.0063 12.8032 28.219 13.3438 25.6475C24.1563 23.4407 32 11.4949 32 5.2245C32 3.72767 31.6064 2.5043 30.8287 1.58318V1.57838ZM14.3824 21.4065C17.6214 9.96444 23.094 3.83801 27.1297 3.83801C27.4095 3.83801 27.7794 3.87639 27.9406 4.06829C28.0212 4.16425 28.2014 4.46169 28.2014 5.2197C28.2014 9.38874 22.4775 18.6911 14.3777 21.4065H14.3824Z" fill="#7447D5"/>
</svg>
