<svg width="466" height="392" viewBox="0 0 466 392" fill="none" xmlns="http://www.w3.org/2000/svg">
<g opacity="0.5" filter="url(#filter0_f_225_1021)">
<path d="M366 202.621C366 275.751 328.399 292 254.945 292C181.491 292 100 275.751 100 202.621C100 129.491 154.891 100 228.345 100C301.799 100 366 129.491 366 202.621Z" fill="url(#paint0_linear_225_1021)"/>
</g>
<path d="M262.336 179.321C261.444 178.263 259.777 177 256.897 177C250.111 177 243.193 183.004 237.921 193.474C235.557 198.166 233.604 203.605 232.097 209.581C231.895 209.581 231.686 209.588 231.484 209.588C228.45 209.588 226.546 208.219 225.821 205.51C224.475 200.508 227.439 190.87 237.516 183.025V182.256H229.949C221.63 190.609 218.659 200.388 220.437 206.999C221.769 211.958 225.633 214.999 230.849 215.225C230.117 218.999 229.559 222.936 229.175 227H234.768C235.194 222.598 235.828 218.499 236.624 214.717C252.524 211.472 264.059 193.904 264.059 184.683C264.059 182.482 263.48 180.683 262.336 179.328V179.321ZM238.151 208.48C242.914 191.654 250.962 182.644 256.897 182.644C257.308 182.644 257.852 182.701 258.089 182.983C258.208 183.124 258.473 183.561 258.473 184.676C258.473 190.807 250.055 204.487 238.144 208.48H238.151Z" fill="white"/>
<defs>
<filter id="filter0_f_225_1021" x="0" y="0" width="466" height="392" filterUnits="userSpaceOnUse" color-interpolation-filters="sRGB">
<feFlood flood-opacity="0" result="BackgroundImageFix"/>
<feBlend mode="normal" in="SourceGraphic" in2="BackgroundImageFix" result="shape"/>
<feGaussianBlur stdDeviation="50" result="effect1_foregroundBlur_225_1021"/>
</filter>
<linearGradient id="paint0_linear_225_1021" x1="233" y1="70.2069" x2="233" y2="335.034" gradientUnits="userSpaceOnUse">
<stop stop-color="#E46A1E"/>
<stop offset="1" stop-color="#105D7E"/>
</linearGradient>
</defs>
</svg>
