<svg width="138" height="43" viewBox="0 0 138 43" fill="none" xmlns="http://www.w3.org/2000/svg">
<g opacity="0.7">
<path d="M47.0069 11.7014C47.0069 10.3717 47.2534 9.20824 47.7465 8.21098C48.2669 7.18603 48.9792 6.41039 49.8831 5.88406C50.7871 5.33003 51.8417 5.05302 53.047 5.05302C53.5127 5.05302 53.9373 5.09457 54.3208 5.17767C54.7317 5.26078 55.0604 5.38543 55.3069 5.55164L55.7178 8.25254C55.4713 8.11403 55.1837 8.01707 54.855 7.96167C54.5262 7.87857 54.1564 7.83701 53.7455 7.83701C52.6498 7.83701 51.8143 8.16943 51.2391 8.83427C50.6638 9.4714 50.3762 10.441 50.3762 11.7429V35.5524H47.0069V11.7014ZM42.5692 13.1557H55.5124V16.1475H42.5692V13.1557Z" fill="white"/>
<path d="M58.1749 13.1557H61.6264V35.5524H58.1749V13.1557ZM57.5174 8.21098L59.9417 5.71785L62.4071 8.21098L59.9417 10.621L57.5174 8.21098Z" fill="white"/>
<path d="M73.8935 36.0094C72.6608 36.0094 71.5788 35.7186 70.6475 35.1368C69.7161 34.5274 68.9902 33.6825 68.4697 32.6022C67.9492 31.5218 67.689 30.2752 67.689 28.8624V16.1475H63.3335V15.6904L70.6064 8.50185H71.0584V13.1557H77.4272V16.1475H71.0584V28.3638C71.0584 29.832 71.3734 30.9539 72.0034 31.7296C72.6334 32.5052 73.5374 32.893 74.7153 32.893C75.2358 32.893 75.7289 32.8238 76.1945 32.6853C76.6876 32.5467 77.1259 32.3528 77.5094 32.1035L77.0574 35.303C76.6739 35.5247 76.1945 35.6909 75.6193 35.8017C75.0714 35.9402 74.4962 36.0094 73.8935 36.0094Z" fill="white"/>
<path d="M88.9621 36.0094C87.209 36.0094 85.6339 35.6078 84.2368 34.8044C82.8398 34.0011 81.7441 32.893 80.9497 31.4802C80.1553 30.0675 79.7581 28.4746 79.7581 26.7017V13.1557H83.1685V26.4524C83.1685 27.7267 83.4014 28.8486 83.867 29.8182C84.3601 30.7877 85.0449 31.5495 85.9215 32.1035C86.7981 32.6299 87.7979 32.893 88.921 32.893C90.6742 32.893 92.0849 32.2974 93.1533 31.1063C94.2216 29.9151 94.7557 28.3777 94.7557 26.494V13.1557H98.1662V26.7017C98.1662 28.4746 97.769 30.0675 96.9746 31.4802C96.1802 32.893 95.0845 34.0011 93.6874 34.8044C92.2904 35.6078 90.7153 36.0094 88.9621 36.0094Z" fill="white"/>
<path d="M102.153 13.1557H112.549L113.042 16.2721H105.605V35.5524H102.153V13.1557Z" fill="white"/>
<path d="M121.078 36.0094C119.599 36.0094 118.284 35.7047 117.133 35.0953C115.983 34.4582 115.079 33.5994 114.422 32.519C113.792 31.411 113.477 30.1644 113.477 28.7793C113.477 27.422 113.805 26.2031 114.463 25.1227C115.12 24.0424 116.038 23.1975 117.216 22.5881C118.394 21.9786 119.722 21.6739 121.201 21.6739C122.544 21.6739 123.763 21.9371 124.858 22.4634C125.954 22.962 126.79 23.6546 127.365 24.541H126.872V16.2721H115.408L115.819 13.1557H130.282V35.5524H126.872V33.267C126.187 34.1534 125.338 34.8321 124.324 35.303C123.338 35.774 122.256 36.0094 121.078 36.0094ZM121.9 33.0177C122.886 33.0177 123.749 32.8376 124.489 32.4775C125.256 32.0897 125.844 31.591 126.255 30.9816C126.666 30.3722 126.872 29.7489 126.872 29.1118V28.2807C126.872 27.6436 126.666 27.0203 126.255 26.4109C125.844 25.8014 125.269 25.3167 124.53 24.9565C123.79 24.5687 122.913 24.3748 121.9 24.3748C120.393 24.3748 119.174 24.7765 118.243 25.5798C117.312 26.3832 116.846 27.422 116.846 28.6962C116.846 29.9705 117.312 31.0093 118.243 31.8127C119.202 32.616 120.421 33.0177 121.9 33.0177Z" fill="white"/>
<path d="M34.1841 14.4113C33.6645 13.7883 32.6942 13.0449 31.0176 13.0449C27.0677 13.0449 23.0406 16.5792 19.9716 22.7423C18.5954 25.5041 17.4588 28.7061 16.5819 32.2238C16.4642 32.2238 16.3424 32.2279 16.2246 32.2279C14.4587 32.2279 13.3505 31.4223 12.9283 29.8275C12.1448 26.8829 13.8701 21.2098 19.7362 16.5916V16.1389H15.3315C10.4885 21.0562 8.75914 26.8123 9.79433 30.7038C10.5697 33.6234 12.8187 35.4134 15.8552 35.5463C15.429 37.7681 15.1042 40.0856 14.8809 42.4777H18.1367C18.3843 39.8862 18.7537 37.4733 19.2165 35.2472C28.4723 33.3368 35.1868 22.9957 35.1868 17.5676C35.1868 16.2718 34.8499 15.2128 34.1841 14.4154V14.4113ZM20.1056 31.5759C22.8782 21.6708 27.563 16.3674 31.0176 16.3674C31.2572 16.3674 31.5738 16.4006 31.7118 16.5667C31.7808 16.6498 31.9351 16.9073 31.9351 17.5634C31.9351 21.1725 27.0352 29.2253 20.1015 31.5759H20.1056Z" fill="white"/>
</g>
</svg>
