<svg width="24" height="24" viewBox="0 0 24 24" fill="none" xmlns="http://www.w3.org/2000/svg">
<path d="M12.0156 1.99902C6.49283 1.99902 2.01562 6.47602 2.01562 11.999C2.01562 17.522 6.49272 21.999 12.0156 21.999C17.5384 21.999 22.0156 17.522 22.0156 11.999C22.0156 6.47602 17.5384 1.99902 12.0156 1.99902ZM12.0156 3.99902C16.4339 3.99902 20.0156 7.58102 20.0156 11.999C20.0156 16.417 16.4339 19.999 12.0156 19.999C7.59732 19.999 4.01562 16.417 4.01562 11.999C4.01562 7.58102 7.59732 3.99902 12.0156 3.99902ZM12.0156 5.99902C11.4633 5.99902 11.0156 6.44702 11.0156 6.99902V11.999C11.0156 12.264 11.1093 12.53 11.2968 12.718L14.2968 15.718C14.6874 16.108 15.3438 16.108 15.7344 15.718C16.1249 15.327 16.1249 14.671 15.7344 14.28L13.0156 11.561V6.99902C13.0156 6.44702 12.5679 5.99902 12.0156 5.99902Z" fill="#9F9F9F"/>
</svg>
